<svg width="730" height="331" viewBox="0 0 730 331" fill="none" xmlns="http://www.w3.org/2000/svg">
<rect x="192" width="331" height="331" fill="#D9D9D9"/>
<path d="M18.02 213.85C15.5267 213.85 13.3733 212.943 11.56 211.13C9.86 209.317 9.01 207.107 9.01 204.5C9.01 201.78 9.86 199.57 11.56 197.87C13.3733 196.17 15.5267 195.32 18.02 195.32C20.5133 195.32 22.61 196.17 24.31 197.87C26.1233 199.57 27.03 201.78 27.03 204.5C27.03 207.107 26.1233 209.317 24.31 211.13C22.61 212.943 20.5133 213.85 18.02 213.85ZM98.4154 122.9C105.669 122.9 112.015 124.317 117.455 127.15C123.009 129.87 127.315 134.063 130.375 139.73C133.549 145.397 135.135 152.537 135.135 161.15V213H123.065V162.34C123.065 152.933 120.685 145.85 115.925 141.09C111.279 136.217 104.705 133.78 96.2054 133.78C89.8587 133.78 84.3054 135.083 79.5454 137.69C74.8987 140.183 71.2721 143.867 68.6654 148.74C66.1721 153.5 64.9254 159.28 64.9254 166.08V213H52.8554V123.75H64.4154V148.23L62.5454 143.64C65.3787 137.18 69.9121 132.137 76.1454 128.51C82.3787 124.77 89.8021 122.9 98.4154 122.9ZM192.124 213.64C185.127 213.64 178.983 212.189 173.692 209.288C168.402 206.301 164.263 202.248 161.276 197.128C158.29 191.923 156.796 185.992 156.796 179.336C156.796 172.68 158.204 166.792 161.02 161.672C163.922 156.552 167.847 152.541 172.796 149.64C177.831 146.653 183.463 145.16 189.692 145.16C196.007 145.16 201.596 146.611 206.46 149.512C211.41 152.328 215.292 156.339 218.108 161.544C220.924 166.664 222.332 172.595 222.332 179.336C222.332 179.763 222.29 180.232 222.204 180.744C222.204 181.171 222.204 181.64 222.204 182.152H163.708V175.368H217.34L213.756 178.056C213.756 173.192 212.69 168.883 210.556 165.128C208.508 161.288 205.692 158.301 202.108 156.168C198.524 154.035 194.386 152.968 189.692 152.968C185.084 152.968 180.946 154.035 177.276 156.168C173.607 158.301 170.748 161.288 168.7 165.128C166.652 168.968 165.628 173.363 165.628 178.312V179.72C165.628 184.84 166.738 189.363 168.956 193.288C171.26 197.128 174.418 200.157 178.428 202.376C182.524 204.509 187.175 205.576 192.38 205.576C196.476 205.576 200.274 204.851 203.772 203.4C207.356 201.949 210.428 199.731 212.988 196.744L218.108 202.632C215.122 206.216 211.367 208.947 206.844 210.824C202.407 212.701 197.5 213.64 192.124 213.64ZM268.222 213.64C261.737 213.64 255.892 212.189 250.686 209.288C245.566 206.301 241.513 202.248 238.526 197.128C235.54 191.923 234.046 185.992 234.046 179.336C234.046 172.595 235.54 166.664 238.526 161.544C241.513 156.424 245.566 152.413 250.686 149.512C255.806 146.611 261.652 145.16 268.222 145.16C274.878 145.16 280.766 146.611 285.886 149.512C291.092 152.413 295.145 156.424 298.046 161.544C301.033 166.664 302.526 172.595 302.526 179.336C302.526 185.992 301.033 191.923 298.046 197.128C295.145 202.248 291.092 206.301 285.886 209.288C280.681 212.189 274.793 213.64 268.222 213.64ZM268.222 205.576C273.086 205.576 277.396 204.509 281.15 202.376C284.905 200.157 287.849 197.085 289.982 193.16C292.201 189.149 293.31 184.541 293.31 179.336C293.31 174.045 292.201 169.437 289.982 165.512C287.849 161.587 284.905 158.557 281.15 156.424C277.396 154.205 273.129 153.096 268.35 153.096C263.572 153.096 259.305 154.205 255.55 156.424C251.796 158.557 248.809 161.587 246.59 165.512C244.372 169.437 243.262 174.045 243.262 179.336C243.262 184.541 244.372 189.149 246.59 193.16C248.809 197.085 251.796 200.157 255.55 202.376C259.305 204.509 263.529 205.576 268.222 205.576ZM370.798 122.9C378.052 122.9 384.398 124.317 389.838 127.15C395.392 129.87 399.698 134.063 402.758 139.73C405.932 145.397 407.518 152.537 407.518 161.15V213H395.448V162.34C395.448 152.933 393.068 145.85 388.308 141.09C383.662 136.217 377.088 133.78 368.588 133.78C362.242 133.78 356.688 135.083 351.928 137.69C347.282 140.183 343.655 143.867 341.048 148.74C338.555 153.5 337.308 159.28 337.308 166.08V213H325.238V123.75H336.798V148.23L334.928 143.64C337.762 137.18 342.295 132.137 348.528 128.51C354.762 124.77 362.185 122.9 370.798 122.9ZM478.075 213V198.152L477.691 195.72V170.888C477.691 165.171 476.07 160.776 472.827 157.704C469.67 154.632 464.934 153.096 458.619 153.096C454.267 153.096 450.128 153.821 446.203 155.272C442.278 156.723 438.95 158.643 436.219 161.032L432.123 154.248C435.536 151.347 439.632 149.128 444.411 147.592C449.19 145.971 454.224 145.16 459.515 145.16C468.219 145.16 474.918 147.336 479.611 151.688C484.39 155.955 486.779 162.483 486.779 171.272V213H478.075ZM454.907 213.64C449.872 213.64 445.478 212.829 441.723 211.208C438.054 209.501 435.238 207.197 433.275 204.296C431.312 201.309 430.331 197.896 430.331 194.056C430.331 190.557 431.142 187.4 432.763 184.584C434.47 181.683 437.2 179.379 440.955 177.672C444.795 175.88 449.915 174.984 456.315 174.984H479.483V181.768H456.571C450.086 181.768 445.563 182.92 443.003 185.224C440.528 187.528 439.291 190.387 439.291 193.8C439.291 197.64 440.784 200.712 443.771 203.016C446.758 205.32 450.939 206.472 456.315 206.472C461.435 206.472 465.83 205.32 469.499 203.016C473.254 200.627 475.984 197.213 477.691 192.776L479.739 199.048C478.032 203.485 475.046 207.027 470.779 209.672C466.598 212.317 461.307 213.64 454.907 213.64ZM532.711 213.64C526.396 213.64 521.532 211.933 518.119 208.52C514.706 205.107 512.999 200.285 512.999 194.056V130.952H522.087V193.544C522.087 197.469 523.068 200.499 525.031 202.632C527.079 204.765 529.98 205.832 533.735 205.832C537.746 205.832 541.074 204.68 543.719 202.376L546.919 208.904C545.127 210.525 542.951 211.72 540.391 212.488C537.916 213.256 535.356 213.64 532.711 213.64ZM500.967 153.352V145.8H542.567V153.352H500.967ZM563.463 213V145.8H572.551V213H563.463ZM568.071 130.952C566.194 130.952 564.615 130.312 563.335 129.032C562.055 127.752 561.415 126.216 561.415 124.424C561.415 122.632 562.055 121.139 563.335 119.944C564.615 118.664 566.194 118.024 568.071 118.024C569.948 118.024 571.527 118.621 572.807 119.816C574.087 121.011 574.727 122.504 574.727 124.296C574.727 126.173 574.087 127.752 572.807 129.032C571.612 130.312 570.034 130.952 568.071 130.952ZM615.118 213L585.294 145.8H594.766L622.158 208.136H617.678L645.454 145.8H654.414L624.462 213H615.118ZM693.882 213.64C686.885 213.64 680.741 212.189 675.45 209.288C670.159 206.301 666.021 202.248 663.034 197.128C660.047 191.923 658.554 185.992 658.554 179.336C658.554 172.68 659.962 166.792 662.778 161.672C665.679 156.552 669.605 152.541 674.554 149.64C679.589 146.653 685.221 145.16 691.45 145.16C697.765 145.16 703.354 146.611 708.218 149.512C713.167 152.328 717.05 156.339 719.866 161.544C722.682 166.664 724.09 172.595 724.09 179.336C724.09 179.763 724.047 180.232 723.962 180.744C723.962 181.171 723.962 181.64 723.962 182.152H665.466V175.368H719.098L715.514 178.056C715.514 173.192 714.447 168.883 712.314 165.128C710.266 161.288 707.45 158.301 703.866 156.168C700.282 154.035 696.143 152.968 691.45 152.968C686.842 152.968 682.703 154.035 679.034 156.168C675.365 158.301 672.506 161.288 670.458 165.128C668.41 168.968 667.386 173.363 667.386 178.312V179.72C667.386 184.84 668.495 189.363 670.714 193.288C673.018 197.128 676.175 200.157 680.186 202.376C684.282 204.509 688.933 205.576 694.138 205.576C698.234 205.576 702.031 204.851 705.53 203.4C709.114 201.949 712.186 199.731 714.746 196.744L719.866 202.632C716.879 206.216 713.125 208.947 708.602 210.824C704.165 212.701 699.258 213.64 693.882 213.64Z" fill="black"/>
</svg>
